# AST/ASF file generated using VICON BodyLanguage
# -----------------------------------------------
:version 1.10
:name VICON
:units
  mass 1.0
  length 0.45
  angle deg
:documentation
   .ast/.asf automatically generated from VICON data using
   VICON BodyBuilder and BodyLanguage model FoxedUp or BRILLIANT.MOD
:root
   order TX TY TZ RX RY RZ
   axis XYZ
   position 0 0 0  
   orientation 0 0 0 
:bonedata
  begin
     id 1 
     name lhipjoint
     direction 0.643824 -0.71708 0.266994 
     length 2.52133 
     axis 0 0 0  XYZ
  end
  begin
     id 2 
     name lfemur
     direction 0.34202 -0.939693 0  
     length 7.51824  
     axis 0 0 20  XYZ
    dof rx ry rz
    limits (-160.0 20.0)
           (-70.0 70.0)
           (-60.0 70.0)
  end
  begin
     id 3 
     name ltibia
     direction 0.34202 -0.939693 0   
     length 7.3685   
     axis 0 0 20   XYZ
    dof rx
    limits (-10.0 170.0)
  end
  begin
     id 4 
     name lfoot
     direction 0.105419 -0.289636 0.951314   
     length 2.20972   
     axis -90 7.62852e-016 20   XYZ
    dof rx rz
    limits (-45.0 90.0)
           (-70.0 20.0)
  end
  begin
     id 5 
     name ltoes
     direction 1.53549e-011 -4.21833e-011 1   
     length 1.10139   
     axis -90 7.62852e-016 20   XYZ
    dof rx
    limits (-90.0 20.0)
  end
  begin
     id 6 
     name rhipjoint
     direction -0.608823 -0.743445 0.276811   
     length 2.43192  
     axis 0 0 0  XYZ 
  end
  begin
     id 7 
     name rfemur
     direction -0.34202 -0.939693 0   
     length 7.69715   
     axis 0 0 -20   XYZ
    dof rx ry rz
    limits (-160.0 20.0)
           (-70.0 70.0)
           (-70.0 60.0)
  end
  begin
     id 8 
     name rtibia
     direction -0.34202 -0.939693 0   
     length 7.44924   
     axis 0 0 -20   XYZ
    dof rx
    limits (-10.0 170.0)
 end
 begin
     id 9 
     name rfoot
     direction -0.103614 -0.284677 0.953007   
     length 2.22623  
     axis -90 -7.62852e-016 -20   XYZ
    dof rx rz
    limits (-45.0 90.0)
           (-20.0 70.0)
  end
  begin
     id 10 
     name rtoes
     direction -1.53537e-011 -4.22026e-011 1   
     length 1.11   
     axis -90 -7.62852e-016 -20   XYZ
    dof rx
    limits (-90.0 20.0)
  end
  begin
     id 11 
     name lowerback
     direction -0.0101212 0.99662 -0.0815298   
     length 2.08277   
     axis 0 0 0   XYZ
    dof rx ry rz
    limits (-20.0 45.0)
           (-30.0 30.0)
           (-30.0 30.0)
  end
  begin
     id 12 
     name upperback
     direction 0.024314 0.999591 -0.0150645   
     length 2.08524   
     axis 0 0 0   XYZ
    dof rx ry rz
    limits (-20.0 45.0)
           (-30.0 30.0)
           (-30.0 30.0)
  end
  begin
     id 13 
     name thorax
     direction 0.0285959 0.999323 0.0231357   
     length 2.09645   
     axis 0 0 0   XYZ
    dof rx ry rz
    limits (-20.0 45.0)
           (-30.0 30.0)
           (-30.0 30.0)
  end
  begin
     id 14 
     name lowerneck
     direction -0.065512 0.979301 0.191515   
     length 1.63798   
     axis 0 0 0   XYZ
    dof rx ry rz
    limits (-20.0 45.0)
           (-30.0 30.0)
           (-30.0 30.0)
  end
  begin
     id 15 
     name upperneck
     direction 0.0498479 0.98191 -0.182667   
     length 1.68731   
     axis 0 0 0   XYZ
    dof rx ry rz
    limits (-20.0 45.0)
           (-30.0 30.0)
           (-30.0 30.0)
  end
  begin
     id 16
     name head
     direction 0.0230358 0.996257 -0.0833175  
     length 1.69785  
     axis 0 0 0   XYZ
    dof rx ry rz
    limits (-20.0 45.0)
           (-30.0 30.0)
           (-30.0 30.0)
  end
  begin
     id 17 
     name lclavicle
     direction 0.967963 0.201165 -0.150269  
     length 3.63976  
     axis 0 0 0   XYZ
    dof ry rz
    limits (-20.0 10.0)
           (0.0 20.0)
  end
  begin
     id 18 
     name lhumerus
     direction 1 -4.48954e-011 -2.92837e-028   
     length 5.32462   
     axis 180 -30 -90   XYZ
    dof rx ry rz
    limits (-60.0 90.0)
           (-90.0 90.0)
           (-90.0 90.0)
  end
  begin
     id 19
     name lradius
     direction 1 -4.48958e-011 -6.39511e-027   
     length 3.48402   
     axis 180 -30 -90   XYZ
    dof rx
    limits (-10.0 170.0)
  end
  begin
     id 20
     name lwrist
     direction 1 -4.48975e-011 -1.1413e-026   
     length 1.74201   
     axis 6.88575e-015 90 90   XYZ
    dof ry
    limits (-180.0 0.0)
 end
  begin
     id 21 
     name lhand
     direction 1 -4.48899e-011 -2.28192e-026   
     length 0.572476   
     axis 1.45643e-014 90 90   XYZ
    dof rx rz
    limits (-90.0 90.0)
           (-45.0 45.0)
  end
  begin
     id 22 
     name lfingers
     direction 1 -4.49155e-011 -4.5684e-026   
     length 0.461545   
     axis 2.91283e-014 90 90   XYZ
    dof rx
    limits (0.0 90.0)
  end
  begin
     id 23
     name lthumb
     direction 0.707107 -6.34943e-011 0.707107   
     length 0.662688   
     axis -90 45 -2.25915e-014   XYZ
    dof rx rz
    limits (-45.0 45.0)
           (-45.0 45.0)
  end
  begin
     id 24 
     name rclavicle
     direction -0.964103 0.264019 -0.0282629   
     length 3.54491  
     axis 0 0 0   XYZ 
    dof ry rz
    limits (-10.0 20.0)
           (-20.0 0.0)
  end
  begin
     id 25 
     name rhumerus
     direction -1 -4.48964e-011 -2.45032e-027  
     length 5.33589   
     axis 180 30 90   XYZ
    dof rx ry rz
    limits (-90.0 60.0)
           (-90.0 90.0)
           (-90.0 90.0)
  end
  begin
     id 26 
     name rradius
     direction -1 -4.48987e-011 -1.55093e-027   
     length 3.64134   
     axis 180 30 90   XYZ
    dof rx
    limits (-10.0 170.0)
  end
  begin
     id 27 
     name rwrist
     direction -1 -4.4897e-011 -1.14128e-026   
     length 1.82067   
     axis 6.88575e-015 -90 -90   XYZ
    dof ry
    limits (-180.0 0.0)
  end
  begin
     id 28
     name rhand
     direction -1 -4.49021e-011 -2.28301e-026   
     length 0.734811   
     axis 1.45643e-014 -90 -90   XYZ
    dof rx rz
    limits (-90.0 90.0)
           (-45.0 45.0)
  end
  begin
     id 29
     name rfingers
     direction -1 -4.48862e-011 -4.56319e-026   
     length 0.592424   
     axis 2.91283e-014 -90 -90   XYZ
    dof rx
    limits (0.0 90.0)
  end
  begin
     id 30
     name rthumb
     direction -0.707107 -6.34978e-011 0.707107   
     length 0.850605   
     axis -90 -45 2.25915e-014   XYZ
    dof rx rz
    limits (-45.0 45.0)
           (-45.0 45.0)
  end
:hierarchy
  begin
    root lhipjoint rhipjoint lowerback
    lhipjoint lfemur
    lfemur ltibia
    ltibia lfoot
    lfoot ltoes
    rhipjoint rfemur
    rfemur rtibia
    rtibia rfoot
    rfoot rtoes
    lowerback upperback
    upperback thorax
    thorax lowerneck lclavicle rclavicle
    lowerneck upperneck
    upperneck head
    lclavicle lhumerus
    lhumerus lradius
    lradius lwrist
    lwrist lhand lthumb
    lhand lfingers
    rclavicle rhumerus
    rhumerus rradius
    rradius rwrist
    rwrist rhand rthumb
    rhand rfingers
  end

#!OML:ASF F:\VICON\USERDATA\INSTALL\rory3\rory3.ASF
:FULLY-SPECIFIED
:DEGREES
24
root 0.747571 17.9963 -0.756013 2.82689 -28.6806 1.14247
lowerback 0.200293 0.298485 -4.9548
upperback -0.248894 0.384385 1.4872
thorax -0.411655 0.20935 4.31297
lowerneck -15.3475 0.614198 -9.49891
upperneck 36.275 3.40808 0.828109
head 15.1033 0.118621 2.55944
rclavicle 4.02539e-015 -1.35174e-014
rhumerus -25.415 11.6413 -83.0505
rradius 89.8839
rwrist 11.3867
rhand -21.6123 14.2463
rfingers 7.12502
rthumb 4.78311 -15.6797
lclavicle 4.02539e-015 -1.35174e-014
lhumerus -25.6388 -29.0095 97.4269
lradius 99.8587
lwrist 10.0127
lhand -22.4584 31.0373
lfingers 7.12502
lthumb 3.96615 60.9801
rfemur -10.5159 2.59398 11.0613
rtibia 22.8346
rfoot -15.2415 -11.6055
rtoes 2.47299
lfemur -3.48394 1.07529 -23.0305
ltibia 14.974
lfoot -10.0501 5.141
ltoes -10.9819
25
root 0.741861 17.9947 -0.751431 2.78433 -28.6243 1.13639
lowerback 0.0654901 0.236054 -4.90695
upperback -0.118633 0.309759 1.43289
thorax -0.19292 0.162925 4.23091
lowerneck -15.2086 0.602547 -9.6427
upperneck 35.8163 3.31745 1.0603
head 14.8457 0.120721 2.65409
rclavicle -4.52235e-014 -3.18055e-015
rhumerus -25.674 10.69 -83.3105
rradius 88.3027
rwrist 11.5636
rhand -21.811 14.1816
rfingers 7.12502
rthumb 4.5913 -15.7486
lclavicle -4.52235e-014 -3.18055e-015
lhumerus -24.9353 -29.0674 96.8186
lradius 100.625
lwrist 9.94301
lhand -21.9381 31.4065
lfingers 7.12502
lthumb 4.46857 61.3394
rfemur -10.4679 2.52992 11.0887
rtibia 22.9117
rfoot -15.3015 -11.6122
rtoes 2.23456
lfemur -3.37497 1.11561 -23.0179
ltibia 14.8875
lfoot -10.0104 5.10681
ltoes -11.5134
26
root 0.739331 17.9917 -0.746937 2.74946 -28.5288 1.11864
lowerback -0.142094 0.158932 -4.76892
upperback 0.0703632 0.21983 1.35374
thorax 0.128859 0.105108 4.07204
lowerneck -15.1399 0.582781 -9.70768
upperneck 35.3301 3.2236 1.2301
head 14.599 0.123991 2.70832
rclavicle 1.9953e-014 -7.7526e-015
rhumerus -25.9094 9.60015 -83.6045
rradius 86.8087
rwrist 12.202
rhand -21.9737 14.0622
rfingers 7.12502
rthumb 4.43416 -15.8714
lclavicle 1.9953e-014 -7.7526e-015
lhumerus -24.0926 -29.1175 96.129
lradius 101.378
lwrist 9.85818
lhand -22.0377 31.5323
lfingers 7.12502
lthumb 4.37235 61.4672
rfemur -10.4077 2.44271 11.1207
rtibia 22.9506
rfoot -15.3199 -11.6336
rtoes 2.30497
lfemur -3.30559 1.09183 -23.0064
ltibia 14.8795
lfoot -10.0126 5.11551
ltoes -12.0853
27
root 0.739946 17.9897 -0.741833 2.71526 -28.2743 1.11374
lowerback -0.249863 0.0546384 -4.64129
upperback 0.185278 0.0872646 1.30238
thorax 0.321863 0.0315345 3.94667
lowerneck -15.1416 0.517016 -9.87559
upperneck 34.982 3.08217 1.47449
head 14.4366 0.0951041 2.80744
rclavicle 2.52457e-014 2.18663e-015
rhumerus -26.3056 8.57072 -83.7723
rradius 85.3697
rwrist 12.7999
rhand -22.2106 13.9665
rfingers 7.12502
rthumb 4.20538 -15.9718
lclavicle 2.52457e-014 2.18663e-015
lhumerus -23.3313 -29.2267 95.5543
lradius 102.117
lwrist 9.85252
lhand -22.5592 31.9814
lfingers 7.12502
lthumb 3.86875 61.926
rfemur -10.2916 2.27372 11.1402
rtibia 22.9514
rfoot -15.373 -11.6906
rtoes 2.40637
lfemur -3.32285 0.891755 -22.9822
ltibia 14.9829
lfoot -10.0931 5.00508
ltoes -11.5757
28
root 0.737528 17.9895 -0.740624 2.75341 -28.3465 1.07176
lowerback -0.330106 0.0764881 -4.6095
upperback 0.226308 0.120598 1.30445
thorax 0.405728 0.0452967 3.93124
lowerneck -15.1128 0.454313 -9.94144
upperneck 34.6866 2.9894 1.50225
head 14.2998 0.0671008 2.80788
rclavicle 6.21202e-017 -1.78906e-015
rhumerus -26.7011 7.61539 -83.8037
rradius 83.8037
rwrist 13.5396
rhand -22.5937 14.0492
rfingers 7.12502
rthumb 3.83548 -15.896
lclavicle 6.21202e-017 -1.78906e-015
lhumerus -22.6522 -29.387 95.0926
lradius 102.871
lwrist 9.82804
lhand -23.4378 33.2288
lfingers 7.12502
lthumb 3.02026 63.1872
rfemur -10.3244 2.35085 11.1871
rtibia 22.956
rfoot -15.3535 -11.7074
rtoes 2.22106
lfemur -3.40426 0.86239 -22.924
ltibia 15.1085
lfoot -10.161 5.03854
ltoes -11.0878
